# xmcd
#
# Track frame offsets:
# 150
# 16541
# 31996
# 47860
# 63132
# 79086
# 92357
# 108559
# 124245
# 140187
# 156224
# 174957
# 190866
# 206221
# 221860
# 240101
# 269625
#
# Disc length: 4440 seconds
#
#
# Revision: 0
# Processed by: cddbd v1.4PL0 Copyright (c) Steve Scherf et al.
# Submitted via: FreeRIP 2.10 
#
DISCID=ea115611
DTITLE=No Angels - Now... Us!
DYEAR=2002
DGENRE=Pop
TTITLE0=Anchor Your Love
TTITLE1=Something About Us
TTITLE2=Still In Love With You
TTITLE3=Push Me To The Limit
TTITLE4=Say Goodbye
TTITLE5=Like Ice In The Sunshine
TTITLE6=Lovestory
TTITLE7=Shield Against My Sorrow
TTITLE8=Autumn Breeze
TTITLE9=Now That We Found Love
TTITLE10=Stay
TTITLE11=Let's Go To Bed
TTITLE12=2 Get Over You
TTITLE13=Lost In You
TTITLE14=Come Back
TTITLE15=Atlantis
TTITLE16=N.N.
EXTD=
EXTT0=
EXTT1=
EXTT2=
EXTT3=
EXTT4=
EXTT5=
EXTT6=
EXTT7=
EXTT8=
EXTT9=
EXTT10=
EXTT11=
EXTT12=
EXTT13=
EXTT14=
EXTT15=
EXTT16=
PLAYORDER=
